<mxfile host="app.diagrams.net" modified="2022-02-24T15:15:27.162Z" agent="5.0 (Windows NT 10.0; Win64; x64) AppleWebKit/537.36 (KHTML, like Gecko) Chrome/98.0.4758.102 Safari/537.36 Edg/98.0.1108.56" etag="-vEODW1WD06s4YVmWhQ_" version="16.6.1" type="github">
  <diagram id="Ibir1PBFGr4VTLwPfgsz" name="Page-1">
    <mxGraphModel dx="2997" dy="1150" grid="1" gridSize="10" guides="1" tooltips="1" connect="1" arrows="1" fold="1" page="1" pageScale="1" pageWidth="827" pageHeight="1169" math="0" shadow="0">
      <root>
        <mxCell id="0" />
        <mxCell id="1" parent="0" />
        <mxCell id="YFodK5tRQj8HDyV5Xvsf-118" value="" style="swimlane;shadow=0;strokeColor=#4277BB;fillColor=#ffffff;fontColor=#4277BB;align=right;startSize=0;collapsible=0;strokeWidth=3;" parent="1" vertex="1">
          <mxGeometry x="-180" y="362" width="100" height="100" as="geometry" />
        </mxCell>
        <mxCell id="YFodK5tRQj8HDyV5Xvsf-119" value="CUSTOMERS" style="aspect=fixed;perimeter=ellipsePerimeter;html=1;align=center;shadow=0;dashed=0;image;image=img/lib/ibm/applications/microservice.svg;labelBackgroundColor=#ffffff;strokeColor=#666666;strokeWidth=3;fillColor=#C2952D;gradientColor=none;fontSize=12;fontColor=#4277BB;" parent="YFodK5tRQj8HDyV5Xvsf-118" vertex="1">
          <mxGeometry x="9" y="10" width="82" height="60" as="geometry" />
        </mxCell>
        <mxCell id="YFodK5tRQj8HDyV5Xvsf-120" value="" style="swimlane;shadow=0;strokeColor=#4277BB;fillColor=#ffffff;fontColor=#4277BB;align=right;startSize=0;collapsible=0;strokeWidth=3;" parent="1" vertex="1">
          <mxGeometry x="-41.5" y="362" width="100" height="100" as="geometry" />
        </mxCell>
        <mxCell id="YFodK5tRQj8HDyV5Xvsf-121" value="PROFILES" style="aspect=fixed;perimeter=ellipsePerimeter;html=1;align=center;shadow=0;dashed=0;image;image=img/lib/ibm/applications/microservice.svg;labelBackgroundColor=#ffffff;strokeColor=#666666;strokeWidth=3;fillColor=#C2952D;gradientColor=none;fontSize=12;fontColor=#4277BB;" parent="YFodK5tRQj8HDyV5Xvsf-120" vertex="1">
          <mxGeometry x="9" y="10" width="82" height="60" as="geometry" />
        </mxCell>
        <mxCell id="YFodK5tRQj8HDyV5Xvsf-122" value="" style="swimlane;shadow=0;strokeColor=#4277BB;fillColor=#ffffff;fontColor=#4277BB;align=right;startSize=0;collapsible=0;strokeWidth=3;" parent="1" vertex="1">
          <mxGeometry x="802.5" y="362" width="100" height="100" as="geometry" />
        </mxCell>
        <mxCell id="YFodK5tRQj8HDyV5Xvsf-123" value="CHARGE" style="aspect=fixed;perimeter=ellipsePerimeter;html=1;align=center;shadow=0;dashed=0;image;image=img/lib/ibm/applications/microservice.svg;labelBackgroundColor=#ffffff;strokeColor=#666666;strokeWidth=3;fillColor=#C2952D;gradientColor=none;fontSize=12;fontColor=#4277BB;" parent="YFodK5tRQj8HDyV5Xvsf-122" vertex="1">
          <mxGeometry x="9" y="10" width="82" height="60" as="geometry" />
        </mxCell>
        <mxCell id="YFodK5tRQj8HDyV5Xvsf-152" style="edgeStyle=orthogonalEdgeStyle;rounded=0;orthogonalLoop=1;jettySize=auto;html=1;entryX=0.5;entryY=1;entryDx=0;entryDy=0;entryPerimeter=0;exitX=0.5;exitY=0;exitDx=0;exitDy=0;" parent="1" source="YFodK5tRQj8HDyV5Xvsf-124" target="YFodK5tRQj8HDyV5Xvsf-151" edge="1">
          <mxGeometry relative="1" as="geometry" />
        </mxCell>
        <mxCell id="YFodK5tRQj8HDyV5Xvsf-124" value="CONFIG SERVER" style="aspect=fixed;perimeter=ellipsePerimeter;html=1;align=center;shadow=0;dashed=0;image;image=img/lib/ibm/applications/microservice.svg;labelBackgroundColor=#ffffff;strokeColor=#666666;strokeWidth=3;fillColor=#C2952D;gradientColor=none;fontSize=12;fontColor=#4277BB;" parent="1" vertex="1">
          <mxGeometry x="390" y="230" width="82" height="60" as="geometry" />
        </mxCell>
        <mxCell id="YFodK5tRQj8HDyV5Xvsf-126" value="" style="swimlane;shadow=0;strokeColor=#4277BB;fillColor=#ffffff;fontColor=#4277BB;align=right;startSize=0;collapsible=0;strokeWidth=3;" parent="1" vertex="1">
          <mxGeometry x="238.5" y="362" width="100" height="100" as="geometry" />
        </mxCell>
        <mxCell id="YFodK5tRQj8HDyV5Xvsf-127" value="BALANCE&lt;br&gt;INQUIRY" style="aspect=fixed;perimeter=ellipsePerimeter;html=1;align=center;shadow=0;dashed=0;image;image=img/lib/ibm/applications/microservice.svg;labelBackgroundColor=#ffffff;strokeColor=#666666;strokeWidth=3;fillColor=#C2952D;gradientColor=none;fontSize=12;fontColor=#4277BB;" parent="YFodK5tRQj8HDyV5Xvsf-126" vertex="1">
          <mxGeometry x="9" y="10" width="82" height="60" as="geometry" />
        </mxCell>
        <mxCell id="YFodK5tRQj8HDyV5Xvsf-128" value="" style="swimlane;shadow=0;strokeColor=#4277BB;fillColor=#ffffff;fontColor=#4277BB;align=right;startSize=0;collapsible=0;strokeWidth=3;" parent="1" vertex="1">
          <mxGeometry x="658.5" y="362" width="100" height="100" as="geometry" />
        </mxCell>
        <mxCell id="YFodK5tRQj8HDyV5Xvsf-129" value="WITHDRAW AND&lt;br&gt;DEPOSIT MONEY" style="aspect=fixed;perimeter=ellipsePerimeter;html=1;align=center;shadow=0;dashed=0;image;image=img/lib/ibm/applications/microservice.svg;labelBackgroundColor=#ffffff;strokeColor=#666666;strokeWidth=3;fillColor=#C2952D;gradientColor=none;fontSize=12;fontColor=#4277BB;" parent="YFodK5tRQj8HDyV5Xvsf-128" vertex="1">
          <mxGeometry x="9" y="10" width="82" height="60" as="geometry" />
        </mxCell>
        <mxCell id="YFodK5tRQj8HDyV5Xvsf-132" style="edgeStyle=orthogonalEdgeStyle;rounded=0;orthogonalLoop=1;jettySize=auto;html=1;exitX=0.5;exitY=0;exitDx=0;exitDy=0;entryX=1;entryY=0.5;entryDx=0;entryDy=0;" parent="1" source="YFodK5tRQj8HDyV5Xvsf-129" target="YFodK5tRQj8HDyV5Xvsf-124" edge="1">
          <mxGeometry relative="1" as="geometry" />
        </mxCell>
        <mxCell id="YFodK5tRQj8HDyV5Xvsf-133" style="edgeStyle=orthogonalEdgeStyle;rounded=0;orthogonalLoop=1;jettySize=auto;html=1;exitX=0.5;exitY=0;exitDx=0;exitDy=0;entryX=1;entryY=0.5;entryDx=0;entryDy=0;" parent="1" source="YFodK5tRQj8HDyV5Xvsf-123" target="YFodK5tRQj8HDyV5Xvsf-124" edge="1">
          <mxGeometry relative="1" as="geometry" />
        </mxCell>
        <mxCell id="YFodK5tRQj8HDyV5Xvsf-134" value="" style="swimlane;shadow=0;strokeColor=#4277BB;fillColor=#ffffff;fontColor=#4277BB;align=right;startSize=0;collapsible=0;strokeWidth=3;" parent="1" vertex="1">
          <mxGeometry x="378.5" y="362" width="100" height="100" as="geometry" />
        </mxCell>
        <mxCell id="YFodK5tRQj8HDyV5Xvsf-135" value="MOVEMENT&lt;br&gt;INQUIRIES" style="aspect=fixed;perimeter=ellipsePerimeter;html=1;align=center;shadow=0;dashed=0;image;image=img/lib/ibm/applications/microservice.svg;labelBackgroundColor=#ffffff;strokeColor=#666666;strokeWidth=3;fillColor=#C2952D;gradientColor=none;fontSize=12;fontColor=#4277BB;" parent="YFodK5tRQj8HDyV5Xvsf-134" vertex="1">
          <mxGeometry x="11.5" y="10" width="82" height="60" as="geometry" />
        </mxCell>
        <mxCell id="YFodK5tRQj8HDyV5Xvsf-136" value="" style="swimlane;shadow=0;strokeColor=#4277BB;fillColor=#ffffff;fontColor=#4277BB;align=right;startSize=0;collapsible=0;strokeWidth=3;" parent="1" vertex="1">
          <mxGeometry x="518.5" y="360" width="100" height="100" as="geometry" />
        </mxCell>
        <mxCell id="YFodK5tRQj8HDyV5Xvsf-137" value="CREDIT&lt;br&gt;TRANSACTIONS" style="aspect=fixed;perimeter=ellipsePerimeter;html=1;align=center;shadow=0;dashed=0;image;image=img/lib/ibm/applications/microservice.svg;labelBackgroundColor=#ffffff;strokeColor=#666666;strokeWidth=3;fillColor=#C2952D;gradientColor=none;fontSize=12;fontColor=#4277BB;" parent="YFodK5tRQj8HDyV5Xvsf-136" vertex="1">
          <mxGeometry x="9" y="10" width="82" height="60" as="geometry" />
        </mxCell>
        <mxCell id="YFodK5tRQj8HDyV5Xvsf-139" style="edgeStyle=orthogonalEdgeStyle;rounded=0;orthogonalLoop=1;jettySize=auto;html=1;exitX=0.5;exitY=0;exitDx=0;exitDy=0;entryX=1;entryY=0.5;entryDx=0;entryDy=0;" parent="1" source="YFodK5tRQj8HDyV5Xvsf-137" target="YFodK5tRQj8HDyV5Xvsf-124" edge="1">
          <mxGeometry relative="1" as="geometry" />
        </mxCell>
        <mxCell id="YFodK5tRQj8HDyV5Xvsf-140" value="" style="swimlane;shadow=0;strokeColor=#4277BB;fillColor=#ffffff;fontColor=#4277BB;align=right;startSize=0;collapsible=0;strokeWidth=3;" parent="1" vertex="1">
          <mxGeometry x="100" y="360" width="100" height="100" as="geometry" />
        </mxCell>
        <mxCell id="YFodK5tRQj8HDyV5Xvsf-141" value="ACCOUNTS" style="aspect=fixed;perimeter=ellipsePerimeter;html=1;align=center;shadow=0;dashed=0;image;image=img/lib/ibm/applications/microservice.svg;labelBackgroundColor=#ffffff;strokeColor=#666666;strokeWidth=3;fillColor=#C2952D;gradientColor=none;fontSize=12;fontColor=#4277BB;" parent="YFodK5tRQj8HDyV5Xvsf-140" vertex="1">
          <mxGeometry x="9" y="10" width="82" height="60" as="geometry" />
        </mxCell>
        <mxCell id="YFodK5tRQj8HDyV5Xvsf-145" style="edgeStyle=orthogonalEdgeStyle;rounded=0;orthogonalLoop=1;jettySize=auto;html=1;" parent="1" source="YFodK5tRQj8HDyV5Xvsf-135" target="YFodK5tRQj8HDyV5Xvsf-124" edge="1">
          <mxGeometry relative="1" as="geometry" />
        </mxCell>
        <mxCell id="YFodK5tRQj8HDyV5Xvsf-146" style="edgeStyle=orthogonalEdgeStyle;rounded=0;orthogonalLoop=1;jettySize=auto;html=1;exitX=0.5;exitY=0;exitDx=0;exitDy=0;entryX=0;entryY=0.5;entryDx=0;entryDy=0;" parent="1" source="YFodK5tRQj8HDyV5Xvsf-127" edge="1" target="YFodK5tRQj8HDyV5Xvsf-124">
          <mxGeometry relative="1" as="geometry">
            <mxPoint x="360" y="290" as="targetPoint" />
          </mxGeometry>
        </mxCell>
        <mxCell id="YFodK5tRQj8HDyV5Xvsf-147" style="edgeStyle=orthogonalEdgeStyle;rounded=0;orthogonalLoop=1;jettySize=auto;html=1;exitX=0.5;exitY=0;exitDx=0;exitDy=0;entryX=0;entryY=0.5;entryDx=0;entryDy=0;" parent="1" source="YFodK5tRQj8HDyV5Xvsf-141" target="YFodK5tRQj8HDyV5Xvsf-124" edge="1">
          <mxGeometry relative="1" as="geometry" />
        </mxCell>
        <mxCell id="YFodK5tRQj8HDyV5Xvsf-149" style="edgeStyle=orthogonalEdgeStyle;rounded=0;orthogonalLoop=1;jettySize=auto;html=1;entryX=0;entryY=0.5;entryDx=0;entryDy=0;exitX=0.5;exitY=0;exitDx=0;exitDy=0;" parent="1" source="YFodK5tRQj8HDyV5Xvsf-119" target="YFodK5tRQj8HDyV5Xvsf-124" edge="1">
          <mxGeometry relative="1" as="geometry" />
        </mxCell>
        <mxCell id="YFodK5tRQj8HDyV5Xvsf-150" style="edgeStyle=orthogonalEdgeStyle;rounded=0;orthogonalLoop=1;jettySize=auto;html=1;exitX=0.5;exitY=0;exitDx=0;exitDy=0;entryX=0;entryY=0.5;entryDx=0;entryDy=0;" parent="1" source="YFodK5tRQj8HDyV5Xvsf-121" target="YFodK5tRQj8HDyV5Xvsf-124" edge="1">
          <mxGeometry relative="1" as="geometry" />
        </mxCell>
        <mxCell id="YFodK5tRQj8HDyV5Xvsf-151" value="" style="verticalLabelPosition=bottom;html=1;verticalAlign=top;align=center;strokeColor=none;fillColor=#00BEF2;shape=mxgraph.azure.git_repository;" parent="1" vertex="1">
          <mxGeometry x="406" y="130" width="50" height="50" as="geometry" />
        </mxCell>
        <mxCell id="YFodK5tRQj8HDyV5Xvsf-153" value="C_CUSTOMERS" style="aspect=fixed;perimeter=ellipsePerimeter;html=1;align=center;shadow=0;dashed=0;fontColor=#4277BB;labelBackgroundColor=#ffffff;fontSize=12;spacingTop=3;image;image=img/lib/ibm/data/data_services.svg;" parent="1" vertex="1">
          <mxGeometry x="-160" y="510" width="60" height="60" as="geometry" />
        </mxCell>
        <mxCell id="YFodK5tRQj8HDyV5Xvsf-154" value="C_PROFILES" style="aspect=fixed;perimeter=ellipsePerimeter;html=1;align=center;shadow=0;dashed=0;fontColor=#4277BB;labelBackgroundColor=#ffffff;fontSize=12;spacingTop=3;image;image=img/lib/ibm/data/data_services.svg;" parent="1" vertex="1">
          <mxGeometry x="-21.5" y="510" width="60" height="60" as="geometry" />
        </mxCell>
        <mxCell id="YFodK5tRQj8HDyV5Xvsf-155" value="C_CHARGE" style="aspect=fixed;perimeter=ellipsePerimeter;html=1;align=center;shadow=0;dashed=0;fontColor=#4277BB;labelBackgroundColor=#ffffff;fontSize=12;spacingTop=3;image;image=img/lib/ibm/data/data_services.svg;" parent="1" vertex="1">
          <mxGeometry x="822.5" y="512" width="60" height="60" as="geometry" />
        </mxCell>
        <mxCell id="YFodK5tRQj8HDyV5Xvsf-156" value="C_BALANCE-INQUIRY" style="aspect=fixed;perimeter=ellipsePerimeter;html=1;align=center;shadow=0;dashed=0;fontColor=#4277BB;labelBackgroundColor=#ffffff;fontSize=12;spacingTop=3;image;image=img/lib/ibm/data/data_services.svg;" parent="1" vertex="1">
          <mxGeometry x="258.5" y="512" width="60" height="60" as="geometry" />
        </mxCell>
        <mxCell id="YFodK5tRQj8HDyV5Xvsf-157" value="C_WITHDRAW-DEPOSIT" style="aspect=fixed;perimeter=ellipsePerimeter;html=1;align=center;shadow=0;dashed=0;fontColor=#4277BB;labelBackgroundColor=#ffffff;fontSize=12;spacingTop=3;image;image=img/lib/ibm/data/data_services.svg;direction=south;" parent="1" vertex="1">
          <mxGeometry x="678.5" y="512" width="60" height="60" as="geometry" />
        </mxCell>
        <mxCell id="YFodK5tRQj8HDyV5Xvsf-158" value="C_MOVEMENT-INQUIRIES" style="aspect=fixed;perimeter=ellipsePerimeter;html=1;align=center;shadow=0;dashed=0;fontColor=#4277BB;labelBackgroundColor=#ffffff;fontSize=12;spacingTop=3;image;image=img/lib/ibm/data/data_services.svg;" parent="1" vertex="1">
          <mxGeometry x="398.5" y="512" width="60" height="60" as="geometry" />
        </mxCell>
        <mxCell id="YFodK5tRQj8HDyV5Xvsf-159" value="C_TRANSACTIONS_CREDIT" style="aspect=fixed;perimeter=ellipsePerimeter;html=1;align=center;shadow=0;dashed=0;fontColor=#4277BB;labelBackgroundColor=#ffffff;fontSize=12;spacingTop=3;image;image=img/lib/ibm/data/data_services.svg;" parent="1" vertex="1">
          <mxGeometry x="538.5" y="510" width="60" height="60" as="geometry" />
        </mxCell>
        <mxCell id="YFodK5tRQj8HDyV5Xvsf-160" value="C_ACCOUNTS" style="aspect=fixed;perimeter=ellipsePerimeter;html=1;align=center;shadow=0;dashed=0;fontColor=#4277BB;labelBackgroundColor=#ffffff;fontSize=12;spacingTop=3;image;image=img/lib/ibm/data/data_services.svg;" parent="1" vertex="1">
          <mxGeometry x="120" y="512" width="60" height="60" as="geometry" />
        </mxCell>
        <mxCell id="YFodK5tRQj8HDyV5Xvsf-161" style="edgeStyle=orthogonalEdgeStyle;rounded=0;orthogonalLoop=1;jettySize=auto;html=1;" parent="1" source="YFodK5tRQj8HDyV5Xvsf-141" target="YFodK5tRQj8HDyV5Xvsf-160" edge="1">
          <mxGeometry relative="1" as="geometry" />
        </mxCell>
        <mxCell id="YFodK5tRQj8HDyV5Xvsf-162" style="edgeStyle=orthogonalEdgeStyle;rounded=0;orthogonalLoop=1;jettySize=auto;html=1;exitX=0.5;exitY=1;exitDx=0;exitDy=0;" parent="1" source="YFodK5tRQj8HDyV5Xvsf-119" target="YFodK5tRQj8HDyV5Xvsf-153" edge="1">
          <mxGeometry relative="1" as="geometry" />
        </mxCell>
        <mxCell id="YFodK5tRQj8HDyV5Xvsf-163" style="edgeStyle=orthogonalEdgeStyle;rounded=0;orthogonalLoop=1;jettySize=auto;html=1;exitX=0.5;exitY=1;exitDx=0;exitDy=0;" parent="1" source="YFodK5tRQj8HDyV5Xvsf-121" target="YFodK5tRQj8HDyV5Xvsf-154" edge="1">
          <mxGeometry relative="1" as="geometry" />
        </mxCell>
        <mxCell id="YFodK5tRQj8HDyV5Xvsf-164" style="edgeStyle=orthogonalEdgeStyle;rounded=0;orthogonalLoop=1;jettySize=auto;html=1;exitX=0.5;exitY=1;exitDx=0;exitDy=0;" parent="1" source="YFodK5tRQj8HDyV5Xvsf-127" target="YFodK5tRQj8HDyV5Xvsf-156" edge="1">
          <mxGeometry relative="1" as="geometry" />
        </mxCell>
        <mxCell id="YFodK5tRQj8HDyV5Xvsf-165" style="edgeStyle=orthogonalEdgeStyle;rounded=0;orthogonalLoop=1;jettySize=auto;html=1;exitX=0.5;exitY=1;exitDx=0;exitDy=0;" parent="1" source="YFodK5tRQj8HDyV5Xvsf-135" target="YFodK5tRQj8HDyV5Xvsf-158" edge="1">
          <mxGeometry relative="1" as="geometry" />
        </mxCell>
        <mxCell id="YFodK5tRQj8HDyV5Xvsf-166" style="edgeStyle=orthogonalEdgeStyle;rounded=0;orthogonalLoop=1;jettySize=auto;html=1;exitX=0.5;exitY=1;exitDx=0;exitDy=0;" parent="1" source="YFodK5tRQj8HDyV5Xvsf-137" target="YFodK5tRQj8HDyV5Xvsf-159" edge="1">
          <mxGeometry relative="1" as="geometry" />
        </mxCell>
        <mxCell id="YFodK5tRQj8HDyV5Xvsf-167" style="edgeStyle=orthogonalEdgeStyle;rounded=0;orthogonalLoop=1;jettySize=auto;html=1;exitX=0.5;exitY=1;exitDx=0;exitDy=0;" parent="1" source="YFodK5tRQj8HDyV5Xvsf-129" target="YFodK5tRQj8HDyV5Xvsf-157" edge="1">
          <mxGeometry relative="1" as="geometry" />
        </mxCell>
        <mxCell id="YFodK5tRQj8HDyV5Xvsf-168" style="edgeStyle=orthogonalEdgeStyle;rounded=0;orthogonalLoop=1;jettySize=auto;html=1;exitX=0.5;exitY=1;exitDx=0;exitDy=0;" parent="1" source="YFodK5tRQj8HDyV5Xvsf-123" target="YFodK5tRQj8HDyV5Xvsf-155" edge="1">
          <mxGeometry relative="1" as="geometry" />
        </mxCell>
        <mxCell id="YFodK5tRQj8HDyV5Xvsf-169" value="" style="outlineConnect=0;dashed=0;verticalLabelPosition=bottom;verticalAlign=top;align=center;html=1;shape=mxgraph.aws3.api_gateway;fillColor=#D9A741;gradientColor=none;" parent="1" vertex="1">
          <mxGeometry x="1150" y="385.5" width="76.5" height="93" as="geometry" />
        </mxCell>
        <mxCell id="YFodK5tRQj8HDyV5Xvsf-172" style="edgeStyle=orthogonalEdgeStyle;rounded=0;orthogonalLoop=1;jettySize=auto;html=1;" parent="1" source="YFodK5tRQj8HDyV5Xvsf-170" target="YFodK5tRQj8HDyV5Xvsf-169" edge="1">
          <mxGeometry relative="1" as="geometry" />
        </mxCell>
        <mxCell id="YFodK5tRQj8HDyV5Xvsf-170" value="DEVICES" style="aspect=fixed;perimeter=ellipsePerimeter;html=1;align=center;shadow=0;dashed=0;image;image=img/lib/ibm/users/device.svg;labelBackgroundColor=#ffffff;strokeColor=#666666;strokeWidth=3;fillColor=#C2952D;gradientColor=none;fontSize=12;fontColor=#4277BB;" parent="1" vertex="1">
          <mxGeometry x="1330" y="540" width="60" height="60" as="geometry" />
        </mxCell>
        <mxCell id="YFodK5tRQj8HDyV5Xvsf-173" style="edgeStyle=orthogonalEdgeStyle;rounded=0;orthogonalLoop=1;jettySize=auto;html=1;" parent="1" source="YFodK5tRQj8HDyV5Xvsf-171" target="YFodK5tRQj8HDyV5Xvsf-169" edge="1">
          <mxGeometry relative="1" as="geometry" />
        </mxCell>
        <mxCell id="YFodK5tRQj8HDyV5Xvsf-171" value="WEB" style="aspect=fixed;perimeter=ellipsePerimeter;html=1;align=center;shadow=0;dashed=0;fontColor=#4277BB;labelBackgroundColor=#ffffff;fontSize=12;spacingTop=3;image;image=img/lib/ibm/users/browser.svg;direction=south;" parent="1" vertex="1">
          <mxGeometry x="1330" y="260" width="60" height="60" as="geometry" />
        </mxCell>
        <mxCell id="YFodK5tRQj8HDyV5Xvsf-174" style="edgeStyle=orthogonalEdgeStyle;rounded=0;orthogonalLoop=1;jettySize=auto;html=1;exitX=1;exitY=0.75;exitDx=0;exitDy=0;entryX=1;entryY=0;entryDx=0;entryDy=0;" parent="1" source="YFodK5tRQj8HDyV5Xvsf-170" target="YFodK5tRQj8HDyV5Xvsf-170" edge="1">
          <mxGeometry relative="1" as="geometry" />
        </mxCell>
        <mxCell id="tdCEXA9Ewpyl4jNjPLSi-1" value="" style="swimlane;shadow=0;strokeColor=#4277BB;fillColor=#ffffff;fontColor=#4277BB;align=right;startSize=0;collapsible=0;strokeWidth=3;" vertex="1" parent="1">
          <mxGeometry x="950" y="362" width="100" height="100" as="geometry" />
        </mxCell>
        <mxCell id="tdCEXA9Ewpyl4jNjPLSi-2" value="TRANSFERS" style="aspect=fixed;perimeter=ellipsePerimeter;html=1;align=center;shadow=0;dashed=0;image;image=img/lib/ibm/applications/microservice.svg;labelBackgroundColor=#ffffff;strokeColor=#666666;strokeWidth=3;fillColor=#C2952D;gradientColor=none;fontSize=12;fontColor=#4277BB;" vertex="1" parent="tdCEXA9Ewpyl4jNjPLSi-1">
          <mxGeometry x="9" y="10" width="82" height="60" as="geometry" />
        </mxCell>
        <mxCell id="tdCEXA9Ewpyl4jNjPLSi-3" value="C_TRANSFERS" style="aspect=fixed;perimeter=ellipsePerimeter;html=1;align=center;shadow=0;dashed=0;fontColor=#4277BB;labelBackgroundColor=#ffffff;fontSize=12;spacingTop=3;image;image=img/lib/ibm/data/data_services.svg;" vertex="1" parent="1">
          <mxGeometry x="970" y="512" width="60" height="60" as="geometry" />
        </mxCell>
        <mxCell id="tdCEXA9Ewpyl4jNjPLSi-4" style="edgeStyle=orthogonalEdgeStyle;rounded=0;orthogonalLoop=1;jettySize=auto;html=1;exitX=0.5;exitY=1;exitDx=0;exitDy=0;" edge="1" parent="1" source="tdCEXA9Ewpyl4jNjPLSi-2" target="tdCEXA9Ewpyl4jNjPLSi-3">
          <mxGeometry relative="1" as="geometry" />
        </mxCell>
        <mxCell id="tdCEXA9Ewpyl4jNjPLSi-5" style="edgeStyle=orthogonalEdgeStyle;rounded=0;orthogonalLoop=1;jettySize=auto;html=1;exitX=0.5;exitY=0;exitDx=0;exitDy=0;entryX=1;entryY=0.5;entryDx=0;entryDy=0;" edge="1" parent="1" source="tdCEXA9Ewpyl4jNjPLSi-2" target="YFodK5tRQj8HDyV5Xvsf-124">
          <mxGeometry relative="1" as="geometry" />
        </mxCell>
      </root>
    </mxGraphModel>
  </diagram>
</mxfile>
